<svg width="122" height="35" viewBox="0 0 122 35" fill="none" xmlns="http://www.w3.org/2000/svg">
<line x1="21.5" x2="21.5" y2="27" stroke="black"/>
<line x1="8.61138" y1="33.6854" x2="25.6114" y2="12.6854" stroke="black"/>
<line x1="0.987504" y1="13.5002" x2="40.9875" y2="12.5002" stroke="black"/>
<line x1="33.6114" y1="34.3146" x2="16.6114" y2="13.3146" stroke="black"/>
<line x1="21.2572" y1="1.42875" x2="1.25725" y2="13.4287" stroke="black"/>
<line x1="22.267" y1="0.577256" x2="41.267" y2="12.5773" stroke="black"/>
<line x1="1.47434" y1="12.8419" x2="8.47434" y2="33.8419" stroke="black"/>
<line x1="9" y1="33.5" x2="33" y2="33.5" stroke="black"/>
<line x1="31.544" y1="32.7948" x2="40.544" y2="12.7948" stroke="black"/>
<path d="M53.524 20.736C53.524 20.864 53.432 20.956 53.248 21.012C53.104 21.06 52.928 21.092 52.72 21.108C52.52 21.116 52.388 21.12 52.324 21.12C52.316 21.368 52.3 21.644 52.276 21.948C52.252 22.252 52.232 22.504 52.216 22.704L52.18 23.076L52.156 23.46L52.084 24.384C52.052 24.792 51.92 24.996 51.688 24.996C51.6 24.996 51.512 24.892 51.424 24.684C51.344 24.484 51.304 24.32 51.304 24.192C51.304 24.16 51.336 24.096 51.4 24C51.464 23.904 51.504 23.784 51.52 23.64C51.552 23.416 51.588 23.044 51.628 22.524C51.668 22.004 51.696 21.568 51.712 21.216C51.4 21.24 51.064 21.276 50.704 21.324C50.544 21.34 50.184 21.376 49.624 21.432C49.064 21.488 48.624 21.524 48.304 21.54C48.272 22.068 48.236 22.712 48.196 23.472C48.156 24.232 48.136 24.696 48.136 24.864C48.136 24.928 48.144 25.012 48.16 25.116C48.184 25.22 48.196 25.3 48.196 25.356C48.196 25.428 48.14 25.5 48.028 25.572C47.924 25.644 47.84 25.68 47.776 25.68C47.696 25.68 47.628 25.628 47.572 25.524C47.524 25.42 47.5 25.3 47.5 25.164C47.5 25.092 47.508 24.972 47.524 24.804C47.54 24.644 47.552 24.504 47.56 24.384C47.592 24.168 47.612 23.992 47.62 23.856C47.66 23.384 47.692 22.928 47.716 22.488C47.74 22.048 47.756 21.752 47.764 21.6C47.26 21.688 46.784 21.732 46.336 21.732C46.184 21.732 46.056 21.696 45.952 21.624C45.84 21.544 45.784 21.432 45.784 21.288C45.784 21.184 45.812 21.108 45.868 21.06C45.916 21.004 46.02 20.976 46.18 20.976L46.816 20.988C47.232 21.004 47.568 21.012 47.824 21.012C47.864 20.332 47.884 19.788 47.884 19.38C47.884 18.452 47.876 17.62 47.86 16.884V16.44C47.86 16.32 47.904 16.224 47.992 16.152C48.088 16.072 48.196 16.032 48.316 16.032C48.404 16.032 48.464 16.1 48.496 16.236C48.528 16.372 48.544 16.524 48.544 16.692C48.544 16.868 48.524 17.228 48.484 17.772C48.436 18.7 48.412 19.192 48.412 19.248L48.352 20.964C49.024 20.948 50.164 20.844 51.772 20.652C51.804 20.42 51.86 19.812 51.94 18.828C51.972 18.308 52 17.928 52.024 17.688L52.096 16.752C52.2 15.576 52.252 14.84 52.252 14.544C52.252 14.44 52.292 14.356 52.372 14.292C52.452 14.228 52.544 14.196 52.648 14.196C52.792 14.196 52.864 14.336 52.864 14.616C52.864 14.792 52.824 15.26 52.744 16.02C52.656 17.012 52.608 17.564 52.6 17.676C52.552 18.292 52.504 18.88 52.456 19.44C52.416 20 52.388 20.376 52.372 20.568C52.516 20.544 52.644 20.508 52.756 20.46C52.9 20.412 53.012 20.388 53.092 20.388C53.172 20.388 53.264 20.436 53.368 20.532C53.472 20.628 53.524 20.696 53.524 20.736ZM62.4231 16.668C62.4231 16.732 62.3951 16.8 62.3391 16.872C62.2831 16.936 62.2111 16.968 62.1231 16.968C62.0991 16.968 62.0151 16.948 61.8711 16.908C61.7351 16.86 61.6071 16.836 61.4871 16.836C61.1031 16.836 60.6671 16.856 60.1791 16.896C59.6911 16.936 59.2871 16.992 58.9671 17.064C58.9911 17.448 59.0111 18.056 59.0271 18.888C59.0511 19.712 59.0631 20.58 59.0631 21.492C59.0631 21.876 59.0551 22.304 59.0391 22.776C59.0311 23.248 59.0151 23.54 58.9911 23.652C58.9751 23.74 58.9191 23.812 58.8231 23.868C58.7351 23.924 58.6431 23.952 58.5471 23.952C58.4911 23.952 58.4431 23.928 58.4031 23.88C58.3631 23.832 58.3431 23.776 58.3431 23.712L58.3551 23.292C58.4031 22.668 58.4271 21.9 58.4271 20.988C58.4271 20.332 58.4191 19.584 58.4031 18.744C58.3871 17.896 58.3711 17.372 58.3551 17.172C56.7551 17.348 55.6871 17.512 55.1511 17.664C55.0551 17.696 54.9471 17.712 54.8271 17.712C54.6831 17.712 54.5431 17.66 54.4071 17.556C54.2711 17.452 54.2031 17.34 54.2031 17.22C54.2031 17.14 54.2271 17.084 54.2751 17.052C54.3231 17.012 54.3831 16.992 54.4551 16.992C54.9111 16.968 55.2951 16.944 55.6071 16.92C56.3191 16.856 57.2151 16.756 58.2951 16.62C58.2951 16.372 58.2991 16.196 58.3071 16.092C58.3231 15.988 58.3511 15.936 58.3911 15.936C58.5431 15.936 58.6791 15.996 58.7991 16.116C58.8231 16.14 58.8431 16.204 58.8591 16.308C58.8751 16.404 58.8831 16.468 58.8831 16.5C59.0591 16.492 59.3471 16.452 59.7471 16.38C60.6111 16.244 61.2031 16.176 61.5231 16.176C61.9071 16.176 62.1631 16.224 62.2911 16.32C62.3791 16.384 62.4231 16.5 62.4231 16.668ZM71.9761 23.364C71.9761 23.42 71.9281 23.484 71.8321 23.556C71.7441 23.62 71.6441 23.652 71.5321 23.652C71.4361 23.652 71.3601 23.648 71.3041 23.64C71.2481 23.624 71.2081 23.588 71.1841 23.532C71.1121 23.412 71.0281 23.056 70.9321 22.464C70.8361 21.872 70.7441 21.192 70.6561 20.424C70.4641 18.08 70.3161 16.884 70.2121 16.836C70.1241 17.028 69.9881 17.392 69.8041 17.928C69.6201 18.456 69.4081 19.148 69.1681 20.004C68.9041 20.924 68.7041 21.56 68.5681 21.912C68.4321 22.256 68.3121 22.468 68.2081 22.548C68.1441 22.604 68.0641 22.66 67.9681 22.716C67.8801 22.764 67.8041 22.788 67.7401 22.788C67.6601 22.788 67.6081 22.78 67.5841 22.764C67.5601 22.74 67.5321 22.676 67.5001 22.572C67.4681 22.452 67.3921 22.08 67.2721 21.456C67.1521 20.824 67.0601 20.256 66.9961 19.752L66.9241 19.248C66.7881 18.208 66.6961 17.628 66.6481 17.508C66.4961 17.644 66.3521 17.948 66.2161 18.42C66.0801 18.884 65.9241 19.544 65.7481 20.4C65.5801 21.064 65.3761 22.144 65.1361 23.64C65.1281 23.728 65.0681 23.808 64.9561 23.88C64.8441 23.952 64.7441 23.988 64.6561 23.988C64.5281 23.988 64.4561 23.864 64.4401 23.616C64.4321 23.368 64.3761 22.832 64.2721 22.008C64.1761 21.184 64.0881 20.46 64.0081 19.836C63.8961 18.948 63.7441 18.124 63.5521 17.364C63.4961 17.124 63.4681 16.988 63.4681 16.956C63.4681 16.836 63.5241 16.74 63.6361 16.668C63.7561 16.588 63.8841 16.548 64.0201 16.548C64.0841 16.548 64.1521 16.796 64.2241 17.292C64.2961 17.788 64.3721 18.412 64.4521 19.164L64.4881 19.56C64.5201 19.824 64.5561 20.1 64.5961 20.388C64.7481 21.612 64.8321 22.38 64.8481 22.692C65.0081 21.764 65.1881 20.832 65.3881 19.896L65.4961 19.368C65.6721 18.52 65.8641 17.88 66.0721 17.448C66.2801 17.008 66.5481 16.788 66.8761 16.788C66.9801 16.788 67.0961 17.06 67.2241 17.604C67.3521 18.14 67.4521 18.768 67.5241 19.488C67.5801 20 67.6521 20.5 67.7401 20.988C67.8281 21.476 67.9081 21.816 67.9801 22.008C68.0281 21.872 68.1241 21.572 68.2681 21.108C68.4201 20.644 68.5601 20.204 68.6881 19.788C69.0801 18.452 69.4961 17.256 69.9361 16.2C70.0161 16.032 70.0921 15.912 70.1641 15.84C70.2441 15.76 70.3801 15.72 70.5721 15.72C70.6761 15.72 70.7881 16.176 70.9081 17.088C71.0281 18 71.1281 19.056 71.2081 20.256C71.4241 21.952 71.6201 22.876 71.7961 23.028C71.9161 23.132 71.9761 23.244 71.9761 23.364ZM78.8355 23.112C78.8355 23.216 78.7875 23.3 78.6915 23.364C78.6035 23.428 78.4955 23.464 78.3675 23.472L76.3035 23.628L74.8755 23.748L74.1315 23.808C74.0675 23.808 74.0075 23.768 73.9515 23.688C73.9035 23.608 73.8795 23.532 73.8795 23.46C73.8795 23.404 73.8955 23.364 73.9275 23.34C73.9675 23.308 74.0075 23.288 74.0475 23.28C74.0955 23.264 74.1275 23.252 74.1435 23.244C74.1515 22.812 74.1555 21.804 74.1555 20.22C74.1555 19.052 74.1075 18.148 74.0115 17.508C73.9235 16.86 73.8795 16.512 73.8795 16.464C73.8795 16.352 73.9195 16.264 73.9995 16.2C74.0875 16.136 74.1755 16.104 74.2635 16.104C74.3195 16.104 74.3635 16.128 74.3955 16.176C74.4275 16.216 74.4515 16.284 74.4675 16.38C74.5475 16.652 74.6075 17.152 74.6475 17.88C74.6955 18.608 74.7195 19.368 74.7195 20.16C74.7195 20.832 74.7155 21.456 74.7075 22.032C74.6995 22.608 74.6955 22.996 74.6955 23.196C74.7995 23.188 74.9995 23.176 75.2955 23.16C75.5915 23.136 75.8955 23.112 76.2075 23.088C76.6715 23.032 77.1955 22.948 77.7795 22.836C78.2515 22.748 78.5355 22.704 78.6315 22.704C78.7195 22.704 78.7755 22.744 78.7995 22.824C78.8235 22.904 78.8355 23 78.8355 23.112ZM89.6031 21.852C89.6031 21.932 89.5311 22.076 89.3871 22.284C89.0511 22.74 88.5991 23.184 88.0311 23.616C87.4631 24.04 86.8391 24.252 86.1591 24.252C85.4391 24.252 84.8511 24.048 84.3951 23.64C83.9391 23.224 83.7111 22.612 83.7111 21.804C83.7111 21.252 83.8071 20.628 83.9991 19.932C84.1911 19.236 84.4151 18.632 84.6711 18.12C84.9351 17.6 85.2391 17.168 85.5831 16.824C85.9351 16.48 86.2871 16.308 86.6391 16.308C86.9831 16.308 87.2471 16.432 87.4311 16.68C87.6231 16.928 87.7191 17.236 87.7191 17.604C87.7191 17.74 87.6911 17.88 87.6351 18.024C87.5871 18.16 87.5311 18.276 87.4671 18.372C87.4031 18.468 87.3551 18.516 87.3231 18.516C87.2591 18.516 87.2271 18.48 87.2271 18.408C87.2271 18.384 87.2391 18.332 87.2631 18.252C87.2951 18.164 87.3111 18.092 87.3111 18.036C87.3111 17.836 87.2871 17.648 87.2391 17.472C87.1991 17.32 87.1191 17.196 86.9991 17.1C86.8791 16.996 86.7471 16.944 86.6031 16.944C86.0271 16.944 85.4871 17.5 84.9831 18.612C84.7831 19.06 84.6151 19.564 84.4791 20.124C84.3431 20.684 84.2751 21.224 84.2751 21.744C84.2751 22.104 84.3471 22.432 84.4911 22.728C84.6431 23.024 84.8551 23.26 85.1271 23.436C85.4071 23.612 85.7311 23.7 86.0991 23.7C86.6831 23.7 87.2111 23.56 87.6831 23.28C88.1631 23 88.6351 22.64 89.0991 22.2C89.1151 22.184 89.1711 22.096 89.2671 21.936C89.3631 21.768 89.4351 21.684 89.4831 21.684C89.5311 21.684 89.5631 21.696 89.5791 21.72C89.5951 21.744 89.6031 21.788 89.6031 21.852ZM94.0533 21.516C94.0533 21.828 93.9373 22.188 93.7053 22.596C93.4733 23.004 93.1453 23.356 92.7213 23.652C92.2973 23.94 91.8133 24.084 91.2693 24.084C90.7333 24.084 90.3373 23.936 90.0813 23.64C89.8253 23.344 89.6973 22.976 89.6973 22.536C89.6973 22.152 89.7653 21.676 89.9013 21.108C90.0453 20.54 90.2453 20.032 90.5013 19.584C90.5173 19.552 90.5813 19.436 90.6933 19.236C90.8133 19.028 90.9453 18.872 91.0893 18.768C91.2333 18.656 91.3853 18.6 91.5453 18.6C91.6173 18.6 91.6813 18.62 91.7373 18.66C91.8013 18.692 91.8333 18.736 91.8333 18.792C91.8333 18.808 91.8093 18.848 91.7613 18.912C91.7213 18.968 91.6893 19.012 91.6653 19.044C91.3933 19.372 91.1733 19.696 91.0053 20.016C90.7813 20.424 90.6053 20.828 90.4773 21.228C90.3573 21.628 90.2973 22.064 90.2973 22.536C90.2973 23.168 90.6813 23.484 91.4493 23.484C91.8093 23.484 92.1413 23.38 92.4453 23.172C92.7573 22.964 93.0053 22.712 93.1893 22.416C93.3733 22.112 93.4653 21.836 93.4653 21.588C93.4653 21.308 93.3733 21.064 93.1893 20.856C93.0053 20.648 92.7533 20.428 92.4333 20.196C92.2253 20.044 92.0733 19.92 91.9773 19.824C91.8813 19.728 91.8333 19.648 91.8333 19.584C91.8333 19.488 91.9013 19.412 92.0373 19.356C92.1733 19.292 92.3333 19.26 92.5173 19.26C92.6213 19.26 92.6893 19.268 92.7213 19.284C92.7533 19.292 92.7693 19.312 92.7693 19.344C92.7693 19.36 92.7533 19.388 92.7213 19.428C92.6973 19.46 92.6853 19.488 92.6853 19.512C92.6853 19.536 92.7653 19.616 92.9253 19.752C93.2453 20.016 93.5133 20.284 93.7293 20.556C93.9453 20.828 94.0533 21.148 94.0533 21.516ZM100.026 23.796C100.026 23.924 99.9902 24.024 99.9182 24.096C99.8462 24.168 99.7462 24.204 99.6182 24.204C99.4582 24.204 99.3102 24.036 99.1742 23.7C99.0462 23.364 98.9662 23.016 98.9342 22.656C98.9022 22.312 98.8782 21.616 98.8622 20.568C98.8542 20.4 98.8502 20.232 98.8502 20.064C98.8502 19.888 98.8462 19.74 98.8382 19.62C98.6062 20.172 98.2902 20.8 97.8902 21.504C97.4902 22.208 97.0862 22.812 96.6782 23.316C96.2782 23.82 95.9502 24.072 95.6942 24.072C95.4302 24.072 95.2542 23.932 95.1662 23.652C95.0862 23.372 95.0462 22.928 95.0462 22.32C95.0462 21.752 95.1182 21.108 95.2622 20.388C95.4142 19.668 95.5862 19.12 95.7782 18.744C95.8582 18.576 95.9262 18.464 95.9822 18.408C96.0382 18.344 96.1022 18.312 96.1742 18.312C96.3742 18.312 96.4742 18.352 96.4742 18.432C96.4742 18.472 96.4342 18.564 96.3542 18.708C96.1382 19.108 95.9502 19.588 95.7902 20.148C95.6302 20.708 95.5502 21.46 95.5502 22.404C95.5502 23.036 95.6382 23.352 95.8142 23.352C96.0222 23.352 96.3022 23.124 96.6542 22.668C97.0142 22.204 97.3702 21.652 97.7222 21.012C98.0742 20.372 98.3422 19.816 98.5262 19.344C98.5902 19.184 98.6622 18.936 98.7422 18.6C98.7662 18.464 98.7902 18.368 98.8142 18.312C98.8382 18.248 98.8662 18.216 98.8982 18.216C98.9862 18.216 99.0822 18.252 99.1862 18.324C99.2902 18.396 99.3422 18.472 99.3422 18.552C99.3422 18.936 99.3542 19.596 99.3782 20.532C99.4102 21.46 99.4462 22.104 99.4862 22.464C99.5182 22.776 99.5742 23.02 99.6542 23.196C99.7422 23.372 99.8262 23.512 99.9062 23.616C99.9862 23.712 100.026 23.772 100.026 23.796ZM105.126 18.948C105.126 19.02 105.074 19.104 104.97 19.2C104.874 19.288 104.79 19.332 104.718 19.332C104.662 19.332 104.606 19.308 104.55 19.26C104.502 19.212 104.446 19.144 104.382 19.056C104.326 18.976 104.25 18.908 104.154 18.852C104.066 18.796 103.974 18.768 103.878 18.768C103.646 18.768 103.334 19.076 102.942 19.692C102.55 20.3 102.166 21.068 101.79 21.996C101.798 22.18 101.81 22.412 101.826 22.692C101.85 22.972 101.866 23.18 101.874 23.316L101.91 23.796C101.91 23.908 101.886 24.004 101.838 24.084C101.79 24.172 101.702 24.216 101.574 24.216C101.438 24.216 101.35 24.036 101.31 23.676C101.27 23.308 101.246 22.776 101.238 22.08C101.23 21.904 101.222 21.652 101.214 21.324C101.214 20.996 101.206 20.604 101.19 20.148C101.166 19.46 101.154 18.968 101.154 18.672C101.154 18.488 101.266 18.396 101.49 18.396C101.626 18.396 101.706 18.456 101.73 18.576C101.762 18.688 101.778 18.908 101.778 19.236V21.144C102.018 20.528 102.278 19.996 102.558 19.548C102.838 19.1 103.11 18.76 103.374 18.528C103.646 18.288 103.886 18.168 104.094 18.168C104.27 18.168 104.438 18.208 104.598 18.288C104.758 18.368 104.886 18.472 104.982 18.6C105.078 18.72 105.126 18.836 105.126 18.948ZM110.299 22.32C110.299 22.672 110.155 23.012 109.867 23.34C109.587 23.66 109.215 23.916 108.751 24.108C108.287 24.308 107.803 24.408 107.299 24.408C106.955 24.408 106.723 24.376 106.603 24.312C106.483 24.248 106.423 24.16 106.423 24.048C106.423 23.976 106.515 23.852 106.699 23.676C106.883 23.492 107.007 23.4 107.071 23.4C107.167 23.4 107.215 23.42 107.215 23.46C107.215 23.492 107.195 23.524 107.155 23.556C107.115 23.588 107.095 23.616 107.095 23.64C107.095 23.672 107.143 23.704 107.239 23.736C107.343 23.768 107.467 23.784 107.611 23.784C107.947 23.784 108.283 23.724 108.619 23.604C108.963 23.476 109.243 23.312 109.459 23.112C109.675 22.912 109.783 22.7 109.783 22.476C109.783 22.26 109.715 22.088 109.579 21.96C109.443 21.832 109.271 21.74 109.063 21.684C108.863 21.62 108.523 21.532 108.043 21.42C107.515 21.3 107.103 21.196 106.807 21.108C106.519 21.012 106.287 20.896 106.111 20.76C105.935 20.616 105.847 20.436 105.847 20.22C105.847 19.836 106.035 19.484 106.411 19.164C106.787 18.844 107.219 18.592 107.707 18.408C108.195 18.224 108.571 18.132 108.835 18.132C109.107 18.132 109.243 18.212 109.243 18.372C109.243 18.468 109.211 18.576 109.147 18.696C109.083 18.808 108.987 18.864 108.859 18.864C108.811 18.864 108.759 18.848 108.703 18.816C108.647 18.776 108.591 18.756 108.535 18.756C108.375 18.756 108.123 18.808 107.779 18.912C107.435 19.016 107.123 19.172 106.843 19.38C106.563 19.588 106.423 19.84 106.423 20.136C106.423 20.328 106.531 20.472 106.747 20.568C106.971 20.656 107.383 20.768 107.983 20.904C108.055 20.928 108.127 20.948 108.199 20.964C108.271 20.972 108.335 20.984 108.391 21C109.007 21.144 109.479 21.308 109.807 21.492C110.135 21.676 110.299 21.952 110.299 22.32ZM115.859 20.94C115.915 20.94 115.943 21 115.943 21.12C115.943 21.264 115.835 21.58 115.619 22.068C115.411 22.556 115.091 23.008 114.659 23.424C114.235 23.84 113.711 24.048 113.087 24.048C112.575 24.048 112.147 23.888 111.803 23.568C111.459 23.248 111.287 22.756 111.287 22.092C111.287 21.468 111.431 20.852 111.719 20.244C112.007 19.628 112.383 19.128 112.847 18.744C113.311 18.352 113.791 18.156 114.287 18.156C114.583 18.156 114.831 18.224 115.031 18.36C115.239 18.488 115.343 18.676 115.343 18.924C115.343 19.204 115.183 19.476 114.863 19.74C114.551 20.004 114.143 20.236 113.639 20.436C113.135 20.636 112.615 20.78 112.079 20.868C111.983 21.236 111.935 21.596 111.935 21.948C111.935 22.412 112.043 22.772 112.259 23.028C112.483 23.284 112.799 23.412 113.207 23.412C113.823 23.412 114.323 23.192 114.707 22.752C115.091 22.312 115.411 21.816 115.667 21.264C115.683 21.232 115.711 21.172 115.751 21.084C115.791 20.988 115.827 20.94 115.859 20.94ZM114.803 19.056C114.803 18.928 114.735 18.828 114.599 18.756C114.471 18.684 114.319 18.648 114.143 18.648C113.839 18.648 113.547 18.748 113.267 18.948C112.987 19.148 112.751 19.388 112.559 19.668C112.375 19.948 112.255 20.196 112.199 20.412C112.567 20.372 112.955 20.268 113.363 20.1C113.771 19.932 114.111 19.748 114.383 19.548C114.663 19.348 114.803 19.184 114.803 19.056ZM121.209 22.32C121.209 22.672 121.065 23.012 120.777 23.34C120.497 23.66 120.125 23.916 119.661 24.108C119.197 24.308 118.713 24.408 118.209 24.408C117.865 24.408 117.633 24.376 117.513 24.312C117.393 24.248 117.333 24.16 117.333 24.048C117.333 23.976 117.425 23.852 117.609 23.676C117.793 23.492 117.917 23.4 117.981 23.4C118.077 23.4 118.125 23.42 118.125 23.46C118.125 23.492 118.105 23.524 118.065 23.556C118.025 23.588 118.005 23.616 118.005 23.64C118.005 23.672 118.053 23.704 118.149 23.736C118.253 23.768 118.377 23.784 118.521 23.784C118.857 23.784 119.193 23.724 119.529 23.604C119.873 23.476 120.153 23.312 120.369 23.112C120.585 22.912 120.693 22.7 120.693 22.476C120.693 22.26 120.625 22.088 120.489 21.96C120.353 21.832 120.181 21.74 119.973 21.684C119.773 21.62 119.433 21.532 118.953 21.42C118.425 21.3 118.013 21.196 117.717 21.108C117.429 21.012 117.197 20.896 117.021 20.76C116.845 20.616 116.757 20.436 116.757 20.22C116.757 19.836 116.945 19.484 117.321 19.164C117.697 18.844 118.129 18.592 118.617 18.408C119.105 18.224 119.481 18.132 119.745 18.132C120.017 18.132 120.153 18.212 120.153 18.372C120.153 18.468 120.121 18.576 120.057 18.696C119.993 18.808 119.897 18.864 119.769 18.864C119.721 18.864 119.669 18.848 119.613 18.816C119.557 18.776 119.501 18.756 119.445 18.756C119.285 18.756 119.033 18.808 118.689 18.912C118.345 19.016 118.033 19.172 117.753 19.38C117.473 19.588 117.333 19.84 117.333 20.136C117.333 20.328 117.441 20.472 117.657 20.568C117.881 20.656 118.293 20.768 118.893 20.904C118.965 20.928 119.037 20.948 119.109 20.964C119.181 20.972 119.245 20.984 119.301 21C119.917 21.144 120.389 21.308 120.717 21.492C121.045 21.676 121.209 21.952 121.209 22.32Z" fill="black"/>
</svg>
